<svg id="Layer_1" data-name="Layer 1" xmlns="http://www.w3.org/2000/svg" viewBox="0 0 62.24 49.9"><defs><style>.cls-1{fill:#ed6744;}</style></defs><title>clase-offline-naranja</title><path class="cls-1" d="M7214.14,7174.35h-41.75a3.51,3.51,0,0,0-3.51,3.5v25a3.51,3.51,0,0,0,3.51,3.51h2.7v9.32a1.48,1.48,0,0,0,.91,1.36,1.55,1.55,0,0,0,.56.11,1.48,1.48,0,0,0,1-.43l10.36-10.36H7190a1.47,1.47,0,1,0,0-2.94h-2.79a1.49,1.49,0,0,0-.93.43l-8.29,8.29s0-7.34,0-7.38a1.46,1.46,0,0,0-1.46-1.34h-4.17a.57.57,0,0,1-.57-.57v-25a.56.56,0,0,1,.57-.56h41.75a.56.56,0,0,1,.56.56v9.61a1.47,1.47,0,0,0,2.94,0v-9.61A3.5,3.5,0,0,0,7214.14,7174.35Z" transform="translate(-7168.88 -7174.35)"/><path class="cls-1" d="M7227.61,7192.31h-29.22a3.5,3.5,0,0,0-3.5,3.5v17.09a3.5,3.5,0,0,0,3.5,3.5h18.3l7.41,7.42a1.48,1.48,0,0,0,1,.43,1.55,1.55,0,0,0,.56-.11,1.48,1.48,0,0,0,.91-1.36v-6.38h1a3.51,3.51,0,0,0,3.51-3.5v-17.09A3.51,3.51,0,0,0,7227.61,7192.31Zm.57,20.59a.57.57,0,0,1-.57.57h-2.47a1.46,1.46,0,0,0-1.46,1.35s0,4.41,0,4.41l-5.33-5.33h0l-.06-.06a1.48,1.48,0,0,0-1-.36h-18.91a.58.58,0,0,1-.57-.57v-17.09a.58.58,0,0,1,.57-.57h29.22a.57.57,0,0,1,.57.57Z" transform="translate(-7168.88 -7174.35)"/><path class="cls-1" d="M7189.24,7196.4a5.29,5.29,0,0,0,1.34-.17,7.87,7.87,0,0,0,1.39-.57l.83,2.22a6.08,6.08,0,0,1-1.81.75,8.06,8.06,0,0,1-2,.27,5.33,5.33,0,0,1-2.07-.34,3.44,3.44,0,0,1-1.29-.84,2.75,2.75,0,0,1-.66-1.12,4.13,4.13,0,0,1-.19-1.16,3,3,0,0,1,.17-1,4.29,4.29,0,0,1,.42-.86,5.9,5.9,0,0,1,.58-.74c.22-.24.44-.46.66-.67l.49-.5a4.7,4.7,0,0,0,.46-.56,3.18,3.18,0,0,0,.35-.62,1.72,1.72,0,0,0,.13-.66v-.23a1.19,1.19,0,0,0,0-.28h2.6c0,.13,0,.28.05.44s0,.31,0,.42a3.52,3.52,0,0,1-.14,1,3.65,3.65,0,0,1-.36.83,4.63,4.63,0,0,1-.52.71c-.2.22-.4.43-.61.64s-.58.6-.83.89a1.52,1.52,0,0,0-.37,1,1.06,1.06,0,0,0,.36.81A1.54,1.54,0,0,0,7189.24,7196.4Zm-1.82-9.88a1.64,1.64,0,0,1,.56-1.34,1.91,1.91,0,0,1,1.26-.47,1.94,1.94,0,0,1,1.27.47,1.88,1.88,0,0,1,0,2.68,1.94,1.94,0,0,1-1.27.47,1.91,1.91,0,0,1-1.26-.47A1.64,1.64,0,0,1,7187.42,7186.52Z" transform="translate(-7168.88 -7174.35)"/><path class="cls-1" d="M7197.14,7183.59a4.87,4.87,0,0,0-1.34.18,7.87,7.87,0,0,0-1.39.57l-.83-2.22a6.2,6.2,0,0,1,1.81-.76,8.64,8.64,0,0,1,2-.26,5.63,5.63,0,0,1,2.08.33,3.49,3.49,0,0,1,1.28.85,2.75,2.75,0,0,1,.66,1.12,3.75,3.75,0,0,1,.19,1.16,3,3,0,0,1-.17,1,4,4,0,0,1-.42.85,5.88,5.88,0,0,1-.59.75l-.65.67c-.16.15-.32.32-.49.5a4.15,4.15,0,0,0-.46.56,2.87,2.87,0,0,0-.34.62,1.49,1.49,0,0,0-.14.65v.24a1.19,1.19,0,0,0,0,.28h-2.6c0-.13,0-.28-.05-.45v-.42a3.35,3.35,0,0,1,.13-1,3.89,3.89,0,0,1,.37-.83,4.46,4.46,0,0,1,.52-.71c.19-.23.4-.44.61-.65s.57-.6.82-.9a1.5,1.5,0,0,0,.37-1,1.05,1.05,0,0,0-.36-.8A1.5,1.5,0,0,0,7197.14,7183.59Zm1.83,9.89a1.65,1.65,0,0,1-.56,1.33,2,2,0,0,1-2.54,0,1.87,1.87,0,0,1,0-2.67,2,2,0,0,1,2.54,0A1.66,1.66,0,0,1,7199,7193.48Z" transform="translate(-7168.88 -7174.35)"/><path class="cls-1" d="M7214.1,7207.71a1.12,1.12,0,0,1-.38.92,1.34,1.34,0,0,1-1.74,0,1.13,1.13,0,0,1-.39-.92,1.14,1.14,0,0,1,.39-.92,1.34,1.34,0,0,1,1.74,0A1.14,1.14,0,0,1,7214.1,7207.71Zm-.17-5.87c0,.73,0,1.41-.08,2s-.13,1.27-.22,1.92h-1.54c-.09-.65-.16-1.29-.22-1.92s-.09-1.31-.09-2v-2.41h2.15Z" transform="translate(-7168.88 -7174.35)"/></svg>