<svg width="24" height="24" viewBox="0 0 24 24" fill="none" xmlns="http://www.w3.org/2000/svg">
<path d="M4.17876 9.24117L4.12984 8.30523L2.45229 8.39318L6.8315 3.52939C7.10184 3.66979 7.39595 3.74602 7.69178 3.74602C8.2048 3.74602 8.71578 3.5369 9.08499 3.12707C9.42007 2.75513 9.59028 2.27476 9.564 1.77527C9.53794 1.27522 9.31858 0.815441 8.94664 0.480591C8.5747 0.145742 8.09341 -0.0180983 7.59484 0.00158529C7.09501 0.0276405 6.63535 0.247232 6.30038 0.619173C5.96542 0.991114 5.79532 1.47149 5.82161 1.97097C5.83935 2.31014 5.95234 2.62713 6.13506 2.9027L1.75597 7.76626L1.66802 6.08872L0.732422 6.1381L0.903999 9.41229L4.17876 9.24117ZM6.99659 1.24575C7.16407 1.05995 7.39368 0.950154 7.64365 0.937411C7.89271 0.920913 8.13358 1.0092 8.31983 1.17669C8.50563 1.34417 8.61543 1.57377 8.6284 1.82397C8.64137 2.07371 8.55638 2.31344 8.3889 2.4997C8.04301 2.88393 7.44966 2.91465 7.06566 2.56922C6.87986 2.40174 6.77006 2.17213 6.75709 1.92193C6.74401 1.67219 6.82911 1.432 6.99659 1.24575Z" fill="#EEEEEE"/>
<path d="M17.9945 4.39561C18.286 4.57049 18.6122 4.66071 18.9438 4.66287L20.5252 11.0062L19.0856 10.1412L18.603 10.9445L21.414 12.633L23.1028 9.82226L22.2998 9.34007L21.4345 10.7797L19.8514 4.42952C20.1423 4.27193 20.3907 4.04517 20.5656 3.75413C20.8234 3.32507 20.8989 2.82138 20.7776 2.33554C20.6565 1.85017 20.3535 1.44068 19.9246 1.18274C19.4955 0.925604 18.9921 0.850624 18.5062 0.971002C18.0206 1.09229 17.6111 1.39505 17.3534 1.82422C17.0956 2.25283 17.0202 2.75698 17.1415 3.24281C17.2623 3.72807 17.5654 4.13756 17.9945 4.39561ZM18.1564 2.30676C18.2852 2.09217 18.4899 1.94085 18.7328 1.88032C18.8084 1.86109 18.8851 1.85199 18.9612 1.85199C19.1292 1.85199 19.2943 1.89727 19.4418 1.98602C19.6564 2.11504 19.8077 2.3195 19.8684 2.56242C19.929 2.80488 19.8913 3.05701 19.7622 3.27148C19.6334 3.48607 19.4288 3.63739 19.1861 3.69792H19.1858C18.9438 3.7597 18.6915 3.72125 18.4768 3.59222C18.2622 3.4632 18.1109 3.25874 18.0502 3.01582C17.9896 2.77291 18.0275 2.52077 18.1564 2.30676Z" fill="#EEEEEE"/>
<path d="M23.7128 21.9312C23.6607 21.4334 23.4174 20.9856 23.0286 20.6708C22.6399 20.3561 22.1512 20.2115 21.6535 20.2633C21.3158 20.299 21.0051 20.4285 20.7392 20.6257L15.6532 16.5068L17.3241 16.3312L17.2262 15.3998L13.9648 15.7424L14.3074 19.0038L15.2394 18.9058L15.0638 17.2346L20.1499 21.3536C19.8055 22.1117 19.9935 23.0355 20.6704 23.5837C21.0165 23.8637 21.4332 24 21.8472 24C22.3936 24 22.9357 23.763 23.3053 23.3064C23.6204 22.917 23.7652 22.4289 23.7128 21.9312ZM22.5773 22.7167C22.2522 23.1179 21.6609 23.1801 21.2597 22.8553C20.8581 22.53 20.7959 21.9389 21.1209 21.5377L21.1211 21.5373C21.2785 21.3428 21.5024 21.2212 21.7514 21.195C21.7848 21.1918 21.8179 21.19 21.8508 21.19C22.0647 21.19 22.2705 21.2623 22.4392 21.3991C22.6334 21.5565 22.7548 21.7802 22.7812 22.0291C22.8072 22.278 22.7349 22.5222 22.5773 22.7167Z" fill="#EEEEEE"/>
<path d="M8.40321 11.538C8.25587 11.2418 8.03798 10.9855 7.75331 10.8006C7.33358 10.5283 6.83307 10.4361 6.34337 10.5394C5.85389 10.6432 5.43394 10.9319 5.16121 11.3519C4.88883 11.7714 4.79587 12.2723 4.89998 12.7618C5.00386 13.2513 5.29251 13.6712 5.71224 13.944C6.01967 14.1434 6.37079 14.2468 6.72873 14.2468C6.85958 14.2468 6.99133 14.2331 7.12218 14.2052C7.61188 14.1013 8.03161 13.8127 8.30433 13.3927C8.48934 13.1081 8.58423 12.7852 8.59822 12.4547L14.9995 11.0943L14.0846 12.503L14.8706 13.0135L16.6566 10.2631L13.9064 8.47668L13.3959 9.26266L14.8053 10.1779L8.40321 11.538ZM7.51858 12.8826C7.38228 13.0926 7.17247 13.2367 6.92751 13.2884C6.68209 13.3405 6.43211 13.2938 6.22254 13.158C6.01261 13.0217 5.86846 12.8116 5.81623 12.5669C5.76435 12.3222 5.81077 12.072 5.94708 11.8619C6.08316 11.652 6.29319 11.5078 6.53793 11.4562C6.60358 11.442 6.66946 11.4351 6.73488 11.4351C6.91374 11.4351 7.08941 11.4869 7.2429 11.5866C7.45282 11.7229 7.59698 11.9329 7.6492 12.1777C7.7012 12.4224 7.655 12.6726 7.51858 12.8826Z" fill="#EEEEEE"/>
<path d="M9.1565 18.6671L9.83974 20.2017L3.73019 17.8566C3.76797 17.5281 3.72485 17.1941 3.58672 16.8838C3.38317 16.4263 3.01373 16.0759 2.54644 15.8966C2.0787 15.7168 1.56955 15.7305 1.11273 15.9341C0.655452 16.1377 0.304788 16.5073 0.125473 16.9744C-0.053841 17.4415 -0.0406427 17.9506 0.16302 18.4081C0.366683 18.8656 0.735893 19.2161 1.20329 19.3954C1.42152 19.4791 1.64862 19.5208 1.87561 19.5208C2.1348 19.5208 2.3933 19.4664 2.63713 19.3578C2.94717 19.2198 3.2026 19.0007 3.39443 18.7313L9.50443 21.0765L7.96968 21.76L8.35072 22.6155L11.3463 21.2819L10.0125 18.2864L9.1565 18.6671ZM2.74954 17.9818C2.56442 18.4639 2.02102 18.7051 1.53905 18.5207C1.05663 18.3354 0.815083 17.7924 1.00009 17.3102C1.14311 16.9378 1.499 16.7091 1.87595 16.7091C1.98734 16.7091 2.10055 16.7292 2.21057 16.7713C2.69299 16.9565 2.93454 17.4996 2.74954 17.9818Z" fill="#EEEEEE"/>
</svg>
