<svg width="24" height="24" viewBox="0 0 24 24" fill="none" xmlns="http://www.w3.org/2000/svg">
<path d="M20.7785 6.44179C22.5572 6.44179 23.9994 4.99982 23.9994 3.22089C23.9994 1.44217 22.5572 0 20.7785 0C18.9996 0 17.5576 1.44217 17.5576 3.22089C17.5596 4.99903 19.0004 6.43982 20.7785 6.44179ZM20.7785 0.805224C22.1126 0.805224 23.1942 1.88685 23.1942 3.22089C23.1942 4.55514 22.1126 5.63657 20.7785 5.63657C19.4443 5.63657 18.3628 4.55514 18.3628 3.22089C18.364 1.88744 19.4449 0.8066 20.7785 0.805224Z" fill="#EEEEEE"/>
<path d="M7.03007 9.42677C7.5011 9.42755 7.95325 9.24079 8.28627 8.90738L11.919 5.27424L14.3439 7.69915C15.0375 8.39271 16.1618 8.39271 16.8553 7.69915L16.8579 7.69679C17.5495 7.00284 17.5495 5.88013 16.8579 5.18617L13.3421 1.67138C12.5562 0.88542 11.2819 0.88542 10.4957 1.67138L5.7723 6.3944C5.26471 6.90278 5.11334 7.66691 5.38856 8.33059C5.66398 8.99408 6.31154 9.42677 7.03007 9.42677V9.42677ZM6.34162 6.96529L11.065 2.2405C11.5367 1.76908 12.3012 1.76908 12.773 2.2405L16.2886 5.75745C16.6664 6.13667 16.6664 6.75022 16.2886 7.12944L16.286 7.132C15.9066 7.51023 15.2927 7.51023 14.9132 7.132L12.2037 4.42203C12.0464 4.26476 11.7916 4.26476 11.6344 4.42203L7.71656 8.33806C7.33183 8.70627 6.72497 8.70529 6.34162 8.3357C5.96476 7.95668 5.96476 7.34431 6.34162 6.96529Z" fill="#EEEEEE"/>
<path d="M22.3876 10.4679H18.3615V8.45485C18.3615 8.29208 18.2634 8.14542 18.1128 8.08311C17.9624 8.02079 17.7893 8.05519 17.6742 8.17019L15.2586 10.5859C15.1831 10.6614 15.1406 10.7638 15.1406 10.8705V12.481C15.1406 13.1482 15.6812 13.6888 16.3485 13.6888H22.3876C23.277 13.6888 23.9981 12.9679 23.9981 12.0784C23.9981 11.189 23.277 10.4679 22.3876 10.4679V10.4679ZM22.3876 12.8836H16.3485C16.1261 12.8836 15.9458 12.7033 15.9458 12.481V11.0372L17.5563 9.42678V10.8705C17.5563 11.0929 17.7366 11.2731 17.9589 11.2731H22.3876C22.8323 11.2731 23.1929 11.6337 23.1929 12.0784C23.1929 12.5232 22.8323 12.8836 22.3876 12.8836Z" fill="#EEEEEE"/>
<path d="M10.1998 15.7422L8.2559 13.7984C8.09608 13.6474 7.84621 13.6474 7.68658 13.7984L0.520171 20.965C-0.17339 21.6583 -0.17339 22.7826 0.520171 23.476V23.4779C1.21393 24.1705 2.33743 24.1705 3.03119 23.4779L10.1976 16.3115C10.3555 16.1549 10.3562 15.9001 10.1998 15.7422V15.7422ZM2.46305 22.9088C2.08403 23.2871 1.47008 23.2871 1.09106 22.9088H1.08949C0.710272 22.53 0.710272 21.9155 1.08949 21.5366L7.97085 14.6523L9.34539 16.0273L2.46305 22.9088Z" fill="#EEEEEE"/>
<path d="M12.2959 11.5501C11.8493 11.0901 11.1891 10.9063 10.5689 11.0691C9.94847 11.2321 9.46407 11.7164 9.3009 12.3369C9.13793 12.9571 9.32155 13.6173 9.78176 14.0641L12.9274 17.2089L9.11297 19.2416C8.26469 19.7262 7.96863 20.8061 8.45145 21.6553L8.50866 21.7609C8.82791 22.3131 9.41748 22.6532 10.0554 22.653C10.3603 22.6534 10.6599 22.5738 10.9243 22.422L15.8901 19.7514L16.5344 19.3814C17.0783 19.0698 17.4461 18.5223 17.5291 17.9007C17.6119 17.2793 17.4003 16.6545 16.957 16.2112L12.2959 11.5501ZM16.7307 17.7955C16.6818 18.1679 16.461 18.4958 16.1345 18.6814L10.5329 21.7179C10.0707 21.9827 9.48137 21.8268 9.21087 21.3679L9.15327 21.2624C8.88964 20.8023 9.04455 20.2159 9.50103 19.9462L13.7853 17.6638C13.8979 17.6039 13.9754 17.494 13.994 17.3678C14.0127 17.2415 13.9707 17.114 13.8802 17.0237L10.3507 13.4948C9.97068 13.1148 9.97068 12.4987 10.3507 12.1187C10.7307 11.7387 11.3468 11.7387 11.7268 12.1187L16.3899 16.7805C16.6568 17.0463 16.783 17.4224 16.7307 17.7955V17.7955Z" fill="#EEEEEE"/>
</svg>
