<svg width="24" height="24" viewBox="0 0 24 24" fill="none" xmlns="http://www.w3.org/2000/svg">
<path d="M20.4853 3.51473C18.2188 1.24823 15.2053 0 12 0C8.79459 0 5.78119 1.24823 3.51473 3.51473C1.24828 5.78123 0 8.79464 0 12C0 15.2053 1.24823 18.2187 3.51473 20.4853C5.78119 22.7518 8.79469 24 12 24C15.2052 24 18.2187 22.7518 20.4853 20.4853C22.7518 18.2188 24 15.2053 24 12C24 8.79469 22.7518 5.78119 20.4853 3.51473ZM11.2566 1.51341V5.91769C8.47097 6.25613 6.25613 8.47097 5.91769 11.2567H1.51341C1.87884 6.05086 6.05086 1.87889 11.2566 1.51341ZM7.41905 11.2566C7.73672 9.29198 9.29198 7.73677 11.2566 7.41905V11.2566H7.41905ZM11.2566 12.7433V16.581C9.29198 16.2633 7.73672 14.708 7.41905 12.7433H11.2566V12.7433ZM11.2566 22.4866C6.05086 22.1212 1.87884 17.9492 1.51341 12.7434H5.91769C6.25613 15.529 8.47097 17.744 11.2567 18.0823V22.4866H11.2566ZM12.7433 1.51341C17.9491 1.87889 22.1212 6.05086 22.4866 11.2566H18.0823C17.7439 8.47097 15.529 6.25613 12.7433 5.91769V1.51341H12.7433ZM12.7433 11.2566V7.41905C14.708 7.73672 16.2632 9.29198 16.581 11.2566H12.7433ZM16.581 12.7433C16.2633 14.708 14.708 16.2632 12.7433 16.581V12.7433H16.581V12.7433ZM12.7433 22.4866V18.0824C15.529 17.7439 17.7439 15.529 18.0824 12.7434H22.4866C22.1212 17.9491 17.9491 22.1211 12.7433 22.4866Z" fill="#EEEEEE"/>
</svg>
