<svg width="42" height="33" viewBox="0 0 42 33" fill="none" xmlns="http://www.w3.org/2000/svg">
<mask id="path-1-inside-1" fill="white">
<path d="M41.179 9.03189H38.6112L31.596 6.76713C30.252 6.23959 28.6574 6.76475 28.0285 7.94705L27.4513 9.03189H22.6048C21.9897 9.03189 21.4277 9.27552 20.9997 9.67566C20.5716 9.27552 20.0096 9.03189 19.3945 9.03189H14.548L13.9708 7.94705C13.342 6.76467 11.7473 6.23959 10.4034 6.76705L3.38808 9.03181H0.820299C0.36733 9.03181 0 9.39906 0 9.85211V22.2686C0 22.7216 0.36733 23.0889 0.820299 23.0889C2.38748 23.0889 3.40555 23.4026 4.58424 23.766C5.86588 24.1611 7.31855 24.6089 9.60169 24.6089H17.4646C18.802 24.6089 19.89 23.4594 19.89 22.0466C19.89 21.7132 19.8294 21.3944 19.7193 21.102C20.2066 21.0328 20.6483 20.8099 20.9997 20.4815C21.3511 20.8099 21.7927 21.0328 22.2801 21.102C22.1699 21.3944 22.1093 21.7132 22.1093 22.0466C22.1093 23.4595 23.1974 24.6089 24.5347 24.6089H32.3976C34.6808 24.6089 36.1334 24.1612 37.4151 23.7661C38.5938 23.4027 39.6118 23.089 41.179 23.089C41.632 23.089 41.9993 22.7217 41.9993 22.2687V9.85219C41.9993 9.39914 41.632 9.03189 41.179 9.03189V9.03189ZM29.9445 14.8034C30.0438 14.6417 30.157 14.4628 30.2774 14.2766C30.5156 14.4353 30.6753 14.7354 30.6753 15.0783C30.6753 15.5866 30.3232 16.0001 29.8904 16.0001H28.3226C28.3287 15.9987 28.3349 15.9977 28.341 15.9962C28.9868 15.8451 29.5714 15.4102 29.9445 14.8034V14.8034ZM22.6048 16.0001C22.1793 16.0001 21.82 15.578 21.82 15.0784C21.82 14.5788 22.1794 14.1567 22.6048 14.1567H25.5161C25.6736 14.7861 26.0534 15.3532 26.6174 15.7066C26.8395 15.8458 27.0787 15.9439 27.326 16.0002L22.6048 16.0001ZM22.6048 10.6725H26.5784L25.7411 12.2464C25.6942 12.3345 25.6536 12.4247 25.6176 12.516H22.6048C22.1793 12.516 21.82 12.0939 21.82 11.5943C21.82 11.0946 22.1794 10.6725 22.6048 10.6725V10.6725ZM12.109 16.0001C11.6762 16.0001 11.3242 15.5866 11.3242 15.0783C11.3242 14.7355 11.4838 14.4353 11.722 14.2766C11.8423 14.4627 11.9555 14.6416 12.0549 14.8033C12.428 15.4102 13.0126 15.8451 13.6586 15.9962C13.6647 15.9976 13.6709 15.9987 13.6769 16H12.109V16.0001ZM16.4832 14.1566H19.3945C19.82 14.1566 20.1794 14.5788 20.1794 15.0783C20.1794 15.5779 19.8199 16 19.3945 16C19.3943 16 19.394 16 19.3937 16H14.6732C14.9204 15.9437 15.1597 15.8456 15.3818 15.7063C15.9458 15.3531 16.3256 14.786 16.4832 14.1566V14.1566ZM19.3945 10.6725C19.82 10.6725 20.1794 11.0946 20.1794 11.5943C20.1794 12.0939 19.8199 12.516 19.3945 12.516H16.3816C16.3457 12.4247 16.305 12.3345 16.2582 12.2463L15.4209 10.6725H19.3945ZM5.06748 22.1982C4.06081 21.8879 3.0251 21.5687 1.6406 21.4753V10.6725H3.5172C3.60275 10.6725 3.68782 10.6591 3.76919 10.6329L10.9334 8.32004C10.9522 8.31389 10.971 8.30708 10.9895 8.29961C11.5541 8.07083 12.2845 8.27016 12.5224 8.71764L14.8098 13.0169C15.0503 13.469 14.9134 14.064 14.5108 14.3163C14.3607 14.4103 14.1999 14.4382 14.0325 14.3989C13.8094 14.3467 13.598 14.1809 13.4524 13.944C13.0104 13.2253 12.2934 12.1482 11.7636 11.4817C11.4816 11.1271 10.9658 11.068 10.611 11.3501C10.2564 11.632 10.1974 12.148 10.4793 12.5027C10.5657 12.6113 10.6592 12.7346 10.7573 12.8679C10.2405 13.2463 9.71874 13.827 9.12632 14.4862C8.57574 15.0989 7.95174 15.7934 7.29993 16.3439C6.95384 16.6362 6.91028 17.1538 7.20256 17.4998C7.49491 17.8459 8.01252 17.8895 8.3586 17.5971C8.90845 17.1328 9.41712 16.6042 9.88313 16.0951C9.99354 16.3638 10.1463 16.6086 10.3325 16.8204C9.93022 17.278 9.68347 17.8902 9.68347 18.5625C9.68347 19.6777 10.3618 20.6284 11.3052 20.9796C11.1636 21.3046 11.084 21.6658 11.084 22.0465C11.084 22.3714 11.1422 22.682 11.247 22.9682H9.6016C7.56562 22.9683 6.29572 22.5768 5.06748 22.1982V22.1982ZM17.4645 22.9683H13.5096C13.0768 22.9683 12.7247 22.5548 12.7247 22.0466C12.7247 21.5384 13.0767 21.125 13.5094 21.1248H17.4645C17.89 21.1248 18.2494 21.547 18.2494 22.0465C18.2494 22.5461 17.89 22.9683 17.4645 22.9683ZM19.3945 19.4842H17.4646H13.5099C13.5098 19.4842 13.5098 19.4842 13.5098 19.4842C13.5096 19.4842 13.5095 19.4842 13.5093 19.4842H12.1092C11.6764 19.4842 11.3243 19.0707 11.3243 18.5625C11.3243 18.0544 11.6764 17.6408 12.1092 17.6408H19.3946H19.3949C19.8202 17.641 20.1794 18.063 20.1794 18.5625C20.1794 19.0621 19.8199 19.4842 19.3945 19.4842V19.4842ZM22.6048 19.4842C22.1793 19.4842 21.82 19.0621 21.82 18.5625C21.82 18.0628 22.1794 17.6407 22.6048 17.6407H29.8902C30.323 17.6407 30.6752 18.0542 30.6752 18.5625C30.6752 19.0707 30.323 19.4842 29.8902 19.4842H28.4901C28.4899 19.4842 28.4898 19.4842 28.4897 19.4842C28.4896 19.4842 28.4895 19.4842 28.4895 19.4842H24.5348H22.6048V19.4842ZM23.7499 22.0465C23.7499 21.5469 24.1093 21.1248 24.5347 21.1248H28.4898C28.9225 21.1249 29.2745 21.5384 29.2745 22.0466C29.2745 22.5549 28.9224 22.9683 28.4897 22.9683H24.5347C24.1093 22.9683 23.7499 22.5462 23.7499 22.0465ZM40.3587 21.4753C38.9742 21.5687 37.9385 21.8879 36.9318 22.1982C35.7036 22.5768 34.4337 22.9683 32.3976 22.9683H30.7522C30.857 22.682 30.9152 22.3714 30.9152 22.0466C30.9152 21.6659 30.8356 21.3047 30.694 20.9796C31.6376 20.6285 32.3159 19.6778 32.3159 18.5625C32.3159 17.8903 32.0692 17.278 31.6668 16.8205C31.853 16.6088 32.0057 16.364 32.1161 16.0953C33.3956 17.4922 35.0255 19.0607 37.014 19.0605C37.2815 19.0605 37.5557 19.0322 37.8361 18.9711C38.2788 18.8748 38.5596 18.4379 38.4633 17.9951C38.367 17.5525 37.9298 17.2718 37.4874 17.368C35.7935 17.7369 34.1738 15.9345 32.8728 14.4864C32.2803 13.827 31.7588 13.2465 31.242 12.868C31.34 12.7347 31.4337 12.6114 31.5201 12.5027C31.802 12.1481 31.743 11.6321 31.3884 11.3501C31.0338 11.0682 30.5178 11.1273 30.2358 11.4818C29.7057 12.1486 28.9888 13.2256 28.5469 13.9442C28.4013 14.181 28.1898 14.3468 27.967 14.3989C27.7995 14.4382 27.6386 14.4103 27.4886 14.3163C27.086 14.0641 26.9491 13.4691 27.1896 13.017L29.477 8.71764C29.7149 8.27016 30.4458 8.07091 31.0099 8.29969C31.0284 8.30716 31.0471 8.31397 31.0661 8.32012L38.2302 10.633C38.3116 10.6592 38.3967 10.6726 38.4822 10.6726H40.3587V21.4753Z"/>
</mask>
<path d="M41.179 9.03189H38.6112L31.596 6.76713C30.252 6.23959 28.6574 6.76475 28.0285 7.94705L27.4513 9.03189H22.6048C21.9897 9.03189 21.4277 9.27552 20.9997 9.67566C20.5716 9.27552 20.0096 9.03189 19.3945 9.03189H14.548L13.9708 7.94705C13.342 6.76467 11.7473 6.23959 10.4034 6.76705L3.38808 9.03181H0.820299C0.36733 9.03181 0 9.39906 0 9.85211V22.2686C0 22.7216 0.36733 23.0889 0.820299 23.0889C2.38748 23.0889 3.40555 23.4026 4.58424 23.766C5.86588 24.1611 7.31855 24.6089 9.60169 24.6089H17.4646C18.802 24.6089 19.89 23.4594 19.89 22.0466C19.89 21.7132 19.8294 21.3944 19.7193 21.102C20.2066 21.0328 20.6483 20.8099 20.9997 20.4815C21.3511 20.8099 21.7927 21.0328 22.2801 21.102C22.1699 21.3944 22.1093 21.7132 22.1093 22.0466C22.1093 23.4595 23.1974 24.6089 24.5347 24.6089H32.3976C34.6808 24.6089 36.1334 24.1612 37.4151 23.7661C38.5938 23.4027 39.6118 23.089 41.179 23.089C41.632 23.089 41.9993 22.7217 41.9993 22.2687V9.85219C41.9993 9.39914 41.632 9.03189 41.179 9.03189V9.03189ZM29.9445 14.8034C30.0438 14.6417 30.157 14.4628 30.2774 14.2766C30.5156 14.4353 30.6753 14.7354 30.6753 15.0783C30.6753 15.5866 30.3232 16.0001 29.8904 16.0001H28.3226C28.3287 15.9987 28.3349 15.9977 28.341 15.9962C28.9868 15.8451 29.5714 15.4102 29.9445 14.8034V14.8034ZM22.6048 16.0001C22.1793 16.0001 21.82 15.578 21.82 15.0784C21.82 14.5788 22.1794 14.1567 22.6048 14.1567H25.5161C25.6736 14.7861 26.0534 15.3532 26.6174 15.7066C26.8395 15.8458 27.0787 15.9439 27.326 16.0002L22.6048 16.0001ZM22.6048 10.6725H26.5784L25.7411 12.2464C25.6942 12.3345 25.6536 12.4247 25.6176 12.516H22.6048C22.1793 12.516 21.82 12.0939 21.82 11.5943C21.82 11.0946 22.1794 10.6725 22.6048 10.6725V10.6725ZM12.109 16.0001C11.6762 16.0001 11.3242 15.5866 11.3242 15.0783C11.3242 14.7355 11.4838 14.4353 11.722 14.2766C11.8423 14.4627 11.9555 14.6416 12.0549 14.8033C12.428 15.4102 13.0126 15.8451 13.6586 15.9962C13.6647 15.9976 13.6709 15.9987 13.6769 16H12.109V16.0001ZM16.4832 14.1566H19.3945C19.82 14.1566 20.1794 14.5788 20.1794 15.0783C20.1794 15.5779 19.8199 16 19.3945 16C19.3943 16 19.394 16 19.3937 16H14.6732C14.9204 15.9437 15.1597 15.8456 15.3818 15.7063C15.9458 15.3531 16.3256 14.786 16.4832 14.1566V14.1566ZM19.3945 10.6725C19.82 10.6725 20.1794 11.0946 20.1794 11.5943C20.1794 12.0939 19.8199 12.516 19.3945 12.516H16.3816C16.3457 12.4247 16.305 12.3345 16.2582 12.2463L15.4209 10.6725H19.3945ZM5.06748 22.1982C4.06081 21.8879 3.0251 21.5687 1.6406 21.4753V10.6725H3.5172C3.60275 10.6725 3.68782 10.6591 3.76919 10.6329L10.9334 8.32004C10.9522 8.31389 10.971 8.30708 10.9895 8.29961C11.5541 8.07083 12.2845 8.27016 12.5224 8.71764L14.8098 13.0169C15.0503 13.469 14.9134 14.064 14.5108 14.3163C14.3607 14.4103 14.1999 14.4382 14.0325 14.3989C13.8094 14.3467 13.598 14.1809 13.4524 13.944C13.0104 13.2253 12.2934 12.1482 11.7636 11.4817C11.4816 11.1271 10.9658 11.068 10.611 11.3501C10.2564 11.632 10.1974 12.148 10.4793 12.5027C10.5657 12.6113 10.6592 12.7346 10.7573 12.8679C10.2405 13.2463 9.71874 13.827 9.12632 14.4862C8.57574 15.0989 7.95174 15.7934 7.29993 16.3439C6.95384 16.6362 6.91028 17.1538 7.20256 17.4998C7.49491 17.8459 8.01252 17.8895 8.3586 17.5971C8.90845 17.1328 9.41712 16.6042 9.88313 16.0951C9.99354 16.3638 10.1463 16.6086 10.3325 16.8204C9.93022 17.278 9.68347 17.8902 9.68347 18.5625C9.68347 19.6777 10.3618 20.6284 11.3052 20.9796C11.1636 21.3046 11.084 21.6658 11.084 22.0465C11.084 22.3714 11.1422 22.682 11.247 22.9682H9.6016C7.56562 22.9683 6.29572 22.5768 5.06748 22.1982V22.1982ZM17.4645 22.9683H13.5096C13.0768 22.9683 12.7247 22.5548 12.7247 22.0466C12.7247 21.5384 13.0767 21.125 13.5094 21.1248H17.4645C17.89 21.1248 18.2494 21.547 18.2494 22.0465C18.2494 22.5461 17.89 22.9683 17.4645 22.9683ZM19.3945 19.4842H17.4646H13.5099C13.5098 19.4842 13.5098 19.4842 13.5098 19.4842C13.5096 19.4842 13.5095 19.4842 13.5093 19.4842H12.1092C11.6764 19.4842 11.3243 19.0707 11.3243 18.5625C11.3243 18.0544 11.6764 17.6408 12.1092 17.6408H19.3946H19.3949C19.8202 17.641 20.1794 18.063 20.1794 18.5625C20.1794 19.0621 19.8199 19.4842 19.3945 19.4842V19.4842ZM22.6048 19.4842C22.1793 19.4842 21.82 19.0621 21.82 18.5625C21.82 18.0628 22.1794 17.6407 22.6048 17.6407H29.8902C30.323 17.6407 30.6752 18.0542 30.6752 18.5625C30.6752 19.0707 30.323 19.4842 29.8902 19.4842H28.4901C28.4899 19.4842 28.4898 19.4842 28.4897 19.4842C28.4896 19.4842 28.4895 19.4842 28.4895 19.4842H24.5348H22.6048V19.4842ZM23.7499 22.0465C23.7499 21.5469 24.1093 21.1248 24.5347 21.1248H28.4898C28.9225 21.1249 29.2745 21.5384 29.2745 22.0466C29.2745 22.5549 28.9224 22.9683 28.4897 22.9683H24.5347C24.1093 22.9683 23.7499 22.5462 23.7499 22.0465ZM40.3587 21.4753C38.9742 21.5687 37.9385 21.8879 36.9318 22.1982C35.7036 22.5768 34.4337 22.9683 32.3976 22.9683H30.7522C30.857 22.682 30.9152 22.3714 30.9152 22.0466C30.9152 21.6659 30.8356 21.3047 30.694 20.9796C31.6376 20.6285 32.3159 19.6778 32.3159 18.5625C32.3159 17.8903 32.0692 17.278 31.6668 16.8205C31.853 16.6088 32.0057 16.364 32.1161 16.0953C33.3956 17.4922 35.0255 19.0607 37.014 19.0605C37.2815 19.0605 37.5557 19.0322 37.8361 18.9711C38.2788 18.8748 38.5596 18.4379 38.4633 17.9951C38.367 17.5525 37.9298 17.2718 37.4874 17.368C35.7935 17.7369 34.1738 15.9345 32.8728 14.4864C32.2803 13.827 31.7588 13.2465 31.242 12.868C31.34 12.7347 31.4337 12.6114 31.5201 12.5027C31.802 12.1481 31.743 11.6321 31.3884 11.3501C31.0338 11.0682 30.5178 11.1273 30.2358 11.4818C29.7057 12.1486 28.9888 13.2256 28.5469 13.9442C28.4013 14.181 28.1898 14.3468 27.967 14.3989C27.7995 14.4382 27.6386 14.4103 27.4886 14.3163C27.086 14.0641 26.9491 13.4691 27.1896 13.017L29.477 8.71764C29.7149 8.27016 30.4458 8.07091 31.0099 8.29969C31.0284 8.30716 31.0471 8.31397 31.0661 8.32012L38.2302 10.633C38.3116 10.6592 38.3967 10.6726 38.4822 10.6726H40.3587V21.4753Z" fill="url(#paint0_linear)" stroke="#0D0D0D" stroke-width="0.6" mask="url(#path-1-inside-1)"/>
<path d="M21.6698 4.26515C21.6698 4.63535 21.3696 4.93545 20.9995 4.93545C20.6294 4.93545 20.3292 4.63535 20.3292 4.26515V0.820299C20.3292 0.450101 20.6294 0.15 20.9995 0.15C21.3696 0.15 21.6698 0.450101 21.6698 0.820299V4.26515Z" fill="url(#paint1_linear)" stroke="#0D0D0D" stroke-width="0.3"/>
<path d="M26.0298 6.28338L26.0297 6.28337C25.7091 6.09821 25.5993 5.68825 25.7844 5.36776L25.7844 5.36773L27.5068 2.38447L27.5068 2.38444C27.6918 2.06386 28.1017 1.95393 28.4224 2.13913L28.4224 2.13915C28.743 2.32421 28.8529 2.73416 28.6677 3.05476L28.6677 3.05477L26.9454 6.03803L26.9453 6.03804C26.8213 6.2529 26.5962 6.37335 26.3641 6.37335C26.2506 6.37335 26.1355 6.34449 26.0298 6.28338Z" fill="url(#paint2_linear)" stroke="#0D0D0D" stroke-width="0.3"/>
<path d="M15.9688 6.28329L15.9688 6.2833C15.8631 6.34436 15.7479 6.37328 15.6345 6.37328C15.4023 6.37328 15.1773 6.25287 15.0532 6.03797C15.0532 6.03796 15.0532 6.03795 15.0532 6.03794L13.3308 3.0547L13.3308 3.05469C13.1456 2.73409 13.2555 2.32415 13.5761 2.13908L13.5761 2.13906C13.8966 1.95395 14.3066 2.06377 14.4917 2.3844C14.4917 2.38441 14.4917 2.38441 14.4917 2.38441L16.2141 5.36767L16.2141 5.36768C16.3993 5.68828 16.2894 6.09822 15.9688 6.28329Z" fill="url(#paint3_linear)" stroke="#0D0D0D" stroke-width="0.3"/>
<path d="M20.3292 28.5466C20.3292 28.1764 20.6294 27.8763 20.9995 27.8763C21.3696 27.8763 21.6698 28.1764 21.6698 28.5466V31.9915C21.6698 32.3617 21.3696 32.6618 20.9995 32.6618C20.6294 32.6618 20.3292 32.3617 20.3292 31.9915V28.5466Z" fill="url(#paint4_linear)" stroke="#0D0D0D" stroke-width="0.3"/>
<path d="M25.7844 27.4441L25.7844 27.4442L27.5068 30.4275C27.5068 30.4275 27.5068 30.4275 27.5068 30.4275C27.6309 30.6424 27.8559 30.7628 28.0881 30.7628C28.2015 30.7628 28.3166 30.7339 28.4224 30.6728L25.7844 27.4441ZM25.7844 27.4441C25.5993 27.1235 25.7091 26.7136 26.0297 26.5285L25.7844 27.4441ZM28.6677 29.7572L28.6677 29.7572L26.9454 26.7739C26.9454 26.7739 26.9454 26.7738 26.9453 26.7738C26.7603 26.4533 26.3507 26.3434 26.0297 26.5285L28.6677 29.7572ZM28.6677 29.7572C28.8529 30.0778 28.743 30.4877 28.4224 30.6728L28.6677 29.7572Z" fill="url(#paint5_linear)" stroke="#0D0D0D" stroke-width="0.3"/>
<path d="M15.0532 26.7738L15.0532 26.7738C15.2382 26.4532 15.648 26.3432 15.9688 26.5284C16.2894 26.7136 16.3993 27.1235 16.2141 27.4441L16.2141 27.4441L14.4917 30.4274L14.6216 30.5024L14.4917 30.4274C14.3677 30.6423 14.1425 30.7627 13.9104 30.7627C13.7969 30.7627 13.6819 30.7339 13.5762 30.6728L13.5761 30.6728C13.2555 30.4877 13.1456 30.0777 13.3308 29.7571L13.3308 29.7571L15.0532 26.7738Z" fill="url(#paint6_linear)" stroke="#0D0D0D" stroke-width="0.3"/>
<path d="M4.33657 17.4992H4.33715C4.70728 17.4992 5.00745 17.7993 5.00745 18.1695C5.00745 18.5397 4.70736 18.8398 4.33715 18.8398C3.96688 18.8398 3.6666 18.5396 3.6666 18.1695C3.6666 17.7992 3.96651 17.4992 4.33657 17.4992Z" fill="url(#paint7_linear)" stroke="#0D0D0D" stroke-width="0.3"/>
<defs>
<linearGradient id="paint0_linear" x1="-5.48324" y1="6.5621" x2="14.0779" y2="45.338" gradientUnits="userSpaceOnUse">
<stop stop-color="#FBF19C"/>
<stop offset="1" stop-color="#ED6744"/>
</linearGradient>
<linearGradient id="paint1_linear" x1="19.965" y1="-1.90119e-07" x2="23.4672" y2="0.962364" gradientUnits="userSpaceOnUse">
<stop stop-color="#FBF19C"/>
<stop offset="1" stop-color="#ED6744"/>
</linearGradient>
<linearGradient id="paint2_linear" x1="25.1053" y1="1.89914" x2="30.6855" y2="5.35608" gradientUnits="userSpaceOnUse">
<stop stop-color="#FBF19C"/>
<stop offset="1" stop-color="#ED6744"/>
</linearGradient>
<linearGradient id="paint3_linear" x1="12.6517" y1="1.89911" x2="18.2318" y2="5.35606" gradientUnits="userSpaceOnUse">
<stop stop-color="#FBF19C"/>
<stop offset="1" stop-color="#ED6744"/>
</linearGradient>
<linearGradient id="paint4_linear" x1="19.965" y1="27.7263" x2="23.4672" y2="28.6887" gradientUnits="userSpaceOnUse">
<stop stop-color="#FBF19C"/>
<stop offset="1" stop-color="#ED6744"/>
</linearGradient>
<linearGradient id="paint5_linear" x1="25.1053" y1="26.2886" x2="30.6855" y2="29.7455" gradientUnits="userSpaceOnUse">
<stop stop-color="#FBF19C"/>
<stop offset="1" stop-color="#ED6744"/>
</linearGradient>
<linearGradient id="paint6_linear" x1="12.6517" y1="26.2885" x2="18.2319" y2="29.7454" gradientUnits="userSpaceOnUse">
<stop stop-color="#FBF19C"/>
<stop offset="1" stop-color="#ED6744"/>
</linearGradient>
<linearGradient id="paint7_linear" x1="3.30238" y1="17.3492" x2="5.48534" y2="19.2089" gradientUnits="userSpaceOnUse">
<stop stop-color="#FBF19C"/>
<stop offset="1" stop-color="#ED6744"/>
</linearGradient>
</defs>
</svg>
