<svg width="47" height="52" viewBox="0 0 47 52" fill="none" xmlns="http://www.w3.org/2000/svg">
<g clip-path="url(#clip0)">
<path d="M44.7909 20.0155H43.3936C43.0725 15.0841 40.9998 10.492 37.4733 6.9655C33.6264 3.11861 28.5117 1 23.0713 1C17.631 1 12.5162 3.11861 8.66954 6.9655C5.14295 10.492 3.0703 15.0841 2.74929 20.0155H1.35184C0.605264 20.0155 0 20.6208 0 21.3674V33.9852C0 34.7318 0.605264 35.337 1.35184 35.337H6.75975C7.50632 35.337 8.11159 34.7318 8.11159 33.9852V21.3674C8.11159 20.6208 7.50632 20.0155 6.75975 20.0155H5.45892C6.15169 10.9049 13.7864 3.70368 23.0713 3.70368C32.3562 3.70368 39.991 10.9049 40.6839 20.0155H39.383C38.6364 20.0155 38.0312 20.6208 38.0312 21.3674V33.9852C38.0312 34.7318 38.6364 35.337 39.383 35.337H40.7351V41.7354H29.598C29.04 40.162 27.5374 39.0317 25.775 39.0317H20.3677C18.1314 39.0317 16.3121 40.851 16.3121 43.0872C16.3121 45.3235 18.1314 47.1428 20.3677 47.1428H25.775C27.5374 47.1428 29.0399 46.0124 29.598 44.4391H42.0869C42.8335 44.4391 43.4387 43.8338 43.4387 43.0872V35.337H44.7908C45.5374 35.337 46.1427 34.7318 46.1427 33.9852V21.3674C46.1428 20.6208 45.5375 20.0155 44.7909 20.0155V20.0155ZM5.40791 32.6334H2.70368V22.7192H5.40791V32.6334ZM25.7751 44.4391H20.3677C19.6223 44.4391 19.0159 43.8326 19.0159 43.0872C19.0159 42.3418 19.6223 41.7354 20.3677 41.7354H25.7751C26.5205 41.7354 27.127 42.3418 27.127 43.0872C27.127 43.8326 26.5205 44.4391 25.7751 44.4391ZM43.4391 32.6334H40.7349V22.7192H43.4391V32.6334Z" fill="#ED6744"/>
<path d="M34.399 23.6888L23.4949 20.0836C23.2192 19.9925 22.9218 19.9925 22.6461 20.0836L11.7419 23.6888C11.1883 23.8718 10.8145 24.3892 10.8145 24.9723C10.8145 25.5554 11.1883 26.0728 11.7419 26.2558L16.2225 27.7372V31.8226C16.2225 34.2374 19.7724 35.3374 23.0706 35.3374C26.3688 35.3374 29.9187 34.2374 29.9187 31.8226C29.9187 31.8225 29.9187 31.8224 29.9187 31.8222C29.9187 31.8222 29.9187 31.8221 29.9187 31.822V27.7371L32.6229 26.8431V33.9856C32.6229 34.7321 33.2282 35.3374 33.9747 35.3374C34.7213 35.3374 35.3266 34.7321 35.3266 33.9856V24.9723C35.3266 24.3892 34.9527 23.8718 34.399 23.6888V23.6888ZM23.0704 22.7909L29.6682 24.9723L23.0704 27.1536L16.4726 24.9723L23.0704 22.7909ZM27.2149 31.6797C26.8666 32.0332 25.3853 32.6336 23.0706 32.6336C20.7555 32.6336 19.2742 32.0331 18.9261 31.6796V28.6309L22.6461 29.8608C22.7839 29.9063 22.9272 29.9291 23.0705 29.9291C23.2138 29.9291 23.3571 29.9063 23.4949 29.8608L27.2149 28.6309V31.6797Z" fill="#ED6744"/>
</g>
<defs>
<clipPath id="clip0">
<rect width="46.1429" height="51.9294" fill="white"/>
</clipPath>
</defs>
</svg>
