<svg width="25" height="24" viewBox="0 0 25 24" fill="none" xmlns="http://www.w3.org/2000/svg">
<path d="M6.2102 14.8245L4.87012 23.3816L12.4233 19.2838V12.8961L6.2102 14.8245Z" fill="#846D9D"/>
<path d="M18.6404 14.8245L19.9805 23.3816L12.4273 19.2838V12.8961L18.6404 14.8245Z" fill="#846D9D"/>
<path d="M8.64164 7.67777L1.11513e-05 9.05366L6.21313 14.8243L12.4262 12.896L8.64164 7.67777Z" fill="#846D9D"/>
<path d="M18.6384 14.8243C21.0974 12.4754 24.6795 8.85631 24.6795 8.85631L16.1588 7.60297L12.4253 12.8959L18.6384 14.8243Z" fill="#846D9D"/>
<path d="M16.2045 7.59291C14.6761 4.56819 12.2523 4.62451e-06 12.2523 4.62451e-06L8.49052 7.66671L12.4279 12.8959L16.2045 7.59291Z" fill="#846D9D"/>
</svg>
