<svg width="30" height="20" viewBox="0 0 30 20" fill="none" xmlns="http://www.w3.org/2000/svg">
<path d="M27.7523 0H2.2467C1.00584 0 0 1.00584 0 2.2467V17.4079C0 18.6487 1.00584 19.6546 2.2467 19.6546H27.7523C28.9931 19.6546 29.999 18.6488 29.999 17.4079V2.2467C29.999 1.00584 28.9931 0 27.7523 0Z" fill="#73AF00"/>
<path d="M14.7307 2.74977L3.82938 9.38534C3.49828 9.58684 3.49828 10.0674 3.82938 10.269L14.7307 16.9047C14.8959 17.0052 15.1034 17.0052 15.2686 16.9047L26.1699 10.269C26.501 10.0675 26.501 9.58696 26.1699 9.3854L15.2686 2.74977C15.1034 2.64929 14.8959 2.64929 14.7307 2.74977Z" fill="#FFE15A"/>
<path d="M15.0001 13.9651C17.2853 13.9651 19.1378 12.1126 19.1378 9.82738C19.1378 7.54217 17.2853 5.68964 15.0001 5.68964C12.7148 5.68964 10.8623 7.54217 10.8623 9.82738C10.8623 12.1126 12.7148 13.9651 15.0001 13.9651Z" fill="#41479B"/>
<path d="M11.4485 7.71046C11.2533 8.03728 11.1025 8.39246 11.0029 8.76962C13.2967 8.59701 16.69 9.2387 18.8497 11.3344C18.9906 10.9745 19.0837 10.5912 19.1186 10.1905C16.8886 8.31366 13.8055 7.64624 11.4485 7.71046Z" fill="#F5F5F5"/>
<path d="M15.1712 11.2394L15.2813 11.5697L15.6296 11.5724C15.6746 11.5728 15.6933 11.6303 15.657 11.6571L15.3769 11.864L15.482 12.196C15.4956 12.239 15.4466 12.2745 15.4099 12.2483L15.1267 12.0458L14.8434 12.2483C14.8067 12.2745 14.7578 12.239 14.7714 12.196L14.8764 11.864L14.5963 11.6571C14.56 11.6303 14.5787 11.5728 14.6238 11.5724L14.972 11.5697L15.0821 11.2394C15.0964 11.1966 15.1569 11.1966 15.1712 11.2394Z" fill="#F5F5F5"/>
<path d="M16.5244 12.0938L16.5718 12.2359L16.7217 12.2371C16.7411 12.2372 16.7491 12.262 16.7335 12.2736L16.6129 12.3626L16.6581 12.5055C16.6639 12.524 16.6429 12.5393 16.6271 12.528L16.5051 12.4408L16.3832 12.528C16.3674 12.5393 16.3464 12.524 16.3522 12.5055L16.3974 12.3626L16.2768 12.2736C16.2612 12.2621 16.2692 12.2373 16.2886 12.2371L16.4385 12.2359L16.4859 12.0938C16.4922 12.0753 16.5183 12.0753 16.5244 12.0938Z" fill="#F5F5F5"/>
<path d="M14.5869 10.6117L14.6343 10.7538L14.7842 10.755C14.8036 10.7551 14.8116 10.7799 14.796 10.7915L14.6754 10.8805L14.7206 11.0234C14.7264 11.0419 14.7054 11.0572 14.6896 11.0459L14.5677 10.9587L14.4457 11.0459C14.43 11.0572 14.4089 11.0419 14.4147 11.0234L14.4599 10.8805L14.3393 10.7915C14.3237 10.78 14.3317 10.7552 14.3511 10.755L14.501 10.7538L14.5484 10.6117C14.5547 10.5934 14.5807 10.5934 14.5869 10.6117Z" fill="#F5F5F5"/>
<path d="M11.96 10.4395L12.0074 10.5816L12.1572 10.5828C12.1766 10.5829 12.1847 10.6077 12.1691 10.6192L12.0485 10.7082L12.0937 10.8511C12.0995 10.8697 12.0785 10.8849 12.0626 10.8736L11.9407 10.7865L11.8188 10.8736C11.803 10.8849 11.7819 10.8697 11.7878 10.8511L11.8329 10.7082L11.7124 10.6192C11.6967 10.6077 11.7048 10.583 11.7242 10.5828L11.8741 10.5816L11.9215 10.4395C11.9278 10.4211 11.9538 10.4211 11.96 10.4395Z" fill="#F5F5F5"/>
<path d="M14.1572 12.0447L14.2046 12.1869L14.3545 12.1881C14.3739 12.1882 14.382 12.213 14.3663 12.2245L14.2457 12.3135L14.2909 12.4564C14.2967 12.4749 14.2757 12.4902 14.2599 12.4789L14.138 12.3918L14.0161 12.4789C14.0003 12.4902 13.9792 12.4749 13.985 12.4564L14.0302 12.3135L13.9096 12.2245C13.894 12.213 13.902 12.1882 13.9214 12.1881L14.0713 12.1869L14.1187 12.0447C14.125 12.0263 14.1511 12.0263 14.1572 12.0447Z" fill="#F5F5F5"/>
<path d="M12.9484 10.3402L12.9871 10.4564L13.1097 10.4574C13.1255 10.4576 13.1322 10.4778 13.1194 10.4873L13.0208 10.56L13.0578 10.6769C13.0626 10.692 13.0454 10.7045 13.0324 10.6953L12.9327 10.624L12.833 10.6953C12.82 10.7045 12.8029 10.692 12.8076 10.6769L12.8446 10.56L12.746 10.4873C12.7333 10.4778 12.7398 10.4576 12.7557 10.4574L12.8783 10.4564L12.9171 10.3402C12.922 10.3252 12.9433 10.3252 12.9484 10.3402Z" fill="#F5F5F5"/>
<path d="M16.6307 7.94045L16.6792 8.08587L16.8325 8.08704C16.8523 8.08716 16.8606 8.11253 16.8446 8.12437L16.7213 8.21542L16.7675 8.3616C16.7735 8.38053 16.7519 8.39617 16.7358 8.38463L16.6111 8.29545L16.4863 8.38463C16.4702 8.39623 16.4487 8.38047 16.4546 8.3616L16.5009 8.21542L16.3776 8.12437C16.3616 8.11259 16.3698 8.08728 16.3896 8.08704L16.5429 8.08587L16.5914 7.94045C16.5978 7.92146 16.6244 7.92146 16.6307 7.94045Z" fill="#F5F5F5"/>
<path d="M12.13 9.62909L12.1688 9.74534L12.2914 9.74633C12.3072 9.74645 12.3138 9.76672 12.3011 9.77616L12.2025 9.84893L12.2395 9.96576C12.2443 9.98088 12.227 9.99341 12.2141 9.98416L12.1144 9.91291L12.0147 9.98416C12.0017 9.99341 11.9845 9.98088 11.9893 9.96576L12.0263 9.84893L11.9276 9.77616C11.9149 9.76672 11.9214 9.74651 11.9374 9.74633L12.0599 9.74534L12.0987 9.62909C12.1037 9.61403 12.125 9.61403 12.13 9.62909Z" fill="#F5F5F5"/>
<path d="M12.7211 11.2675L12.7798 11.4436L12.9654 11.445C12.9894 11.4452 12.9994 11.4758 12.98 11.4901L12.8307 11.6004L12.8867 11.7773C12.894 11.8002 12.8679 11.8192 12.8483 11.8052L12.6973 11.6972L12.5462 11.8052C12.5267 11.8191 12.5006 11.8002 12.5078 11.7773L12.5639 11.6004L12.4145 11.4901C12.3952 11.4758 12.4051 11.4452 12.4291 11.445L12.6148 11.4436L12.6735 11.2675C12.6813 11.2447 12.7135 11.2447 12.7211 11.2675Z" fill="#F5F5F5"/>
<path d="M17.2793 12.1308L17.3163 12.2416L17.433 12.2424C17.4482 12.2426 17.4544 12.2618 17.4423 12.2708L17.3484 12.3402L17.3836 12.4515C17.3881 12.4659 17.3718 12.4778 17.3594 12.469L17.2644 12.4011L17.1694 12.469C17.1571 12.4778 17.1407 12.4659 17.1452 12.4515L17.1804 12.3402L17.0865 12.2708C17.0743 12.2618 17.0806 12.2426 17.0957 12.2424L17.2125 12.2416L17.2494 12.1308C17.2542 12.1164 17.2746 12.1164 17.2793 12.1308Z" fill="#F5F5F5"/>
<path d="M17.6864 11.2852L17.7338 11.4274L17.8837 11.4286C17.9031 11.4287 17.9112 11.4535 17.8956 11.465L17.775 11.554L17.8201 11.6969C17.8259 11.7154 17.805 11.7307 17.7891 11.7194L17.6672 11.6323L17.5453 11.7194C17.5295 11.7307 17.5084 11.7154 17.5143 11.6969L17.5595 11.554L17.4389 11.465C17.4233 11.4535 17.4313 11.4287 17.4507 11.4286L17.6006 11.4274L17.648 11.2852C17.6542 11.2668 17.6803 11.2668 17.6864 11.2852Z" fill="#F5F5F5"/>
</svg>
