<svg id="Capa_1" data-name="Capa 1" xmlns="http://www.w3.org/2000/svg" viewBox="0 0 1000 1000"><defs><style>.cls-1{fill:#5b4066;}.cls-2{fill:#755381;}.cls-3{fill:#fef19c;}</style></defs><path class="cls-1" d="M346.38,416.25a14,14,0,0,0-14-.06l-60.66,34.53a14,14,0,0,0-7.08,12.17v79.18L326,578.86a14,14,0,0,0,14.19.14L402,543.53a14,14,0,0,0,7-12.15V452.59Zm43.74,111.27L333.88,559,285,529.39v-63.1l54.44-30.74,50.67,29.18Z"/><path class="cls-1" d="M672.75,416.25a14,14,0,0,0-14-.06l-60.66,34.53a14,14,0,0,0-7.08,12.17v79.18l61.35,36.79a14,14,0,0,0,14.19.14l61.73-35.47a14,14,0,0,0,7-12.15V452.59Zm43.74,111.27L660.25,559l-48.87-29.64v-63.1l54.44-30.74,50.67,29.18Z"/><path class="cls-1" d="M587.26,561.42a14,14,0,0,0-14-.06l-60.66,34.52a14,14,0,0,0-7.08,12.18v79.18L566.91,724a14,14,0,0,0,14.18.13l61.74-35.46a14,14,0,0,0,7-12.15V597.76ZM631,672.69,574.76,704.2l-48.88-29.65V611.46l54.44-30.74L631,609.9Z"/><path class="cls-1" d="M421.33,560.92a14.06,14.06,0,0,0-14-.06l-60.72,34.57a14,14,0,0,0-7.09,12.19v79.26L401,723.71a14,14,0,0,0,14.2.13l61.8-35.5a14,14,0,0,0,7-12.16V597.3Zm43.79,111.4-56.3,31.53-48.93-29.67V611l54.5-30.77,50.73,29.21Z"/><path class="cls-1" d="M594.81,269.72a14,14,0,0,0-14-.06l-60.66,34.53a14,14,0,0,0-7.08,12.17v79.18l61.36,36.79a14,14,0,0,0,14.18.14L650.38,397a14,14,0,0,0,7-12.15V306.06ZM638.55,381,582.31,412.5l-48.88-29.64v-63.1L587.87,289l50.68,29.18Z"/><path class="cls-1" d="M752.21,561.42a14,14,0,0,0-14-.06l-60.66,34.52a14,14,0,0,0-7.08,12.18v79.18L731.86,724a14,14,0,0,0,14.18.13l61.74-35.46a14,14,0,0,0,7-12.15V597.76ZM796,672.69,739.71,704.2l-48.88-29.65V611.46l54.44-30.74L796,609.9Z"/><path class="cls-1" d="M759.76,269.72a14,14,0,0,0-14-.06l-60.66,34.53a14,14,0,0,0-7.08,12.17v79.18l61.36,36.79a14,14,0,0,0,14.18.14L815.33,397a14,14,0,0,0,7-12.15V306.06ZM803.5,381,747.26,412.5l-48.88-29.64v-63.1L752.82,289,803.5,318.2Z"/><path class="cls-1" d="M428,272.47a14,14,0,0,0-14-.06l-60.66,34.52a14,14,0,0,0-7.08,12.18v79.18l61.36,36.79a14,14,0,0,0,14.18.13l61.74-35.46a14,14,0,0,0,7-12.15V308.81Zm43.74,111.27-56.23,31.5L366.6,385.6V322.51L421,291.77,471.71,321Z"/><path class="cls-1" d="M259.43,560.92a14.06,14.06,0,0,0-14-.06l-60.72,34.57a14,14,0,0,0-7.09,12.19v79.26l61.42,36.83a14,14,0,0,0,14.2.13l61.8-35.5a14,14,0,0,0,7-12.16V597.3Zm43.79,111.4-56.3,31.53L198,674.18V611l54.5-30.77,50.73,29.21Z"/><path class="cls-1" d="M266.08,272.47a14,14,0,0,0-14-.06l-60.66,34.52a14,14,0,0,0-7.08,12.18v79.18l61.36,36.79a14,14,0,0,0,14.18.13l61.74-35.46a14,14,0,0,0,7-12.15V308.81Zm43.74,111.27-56.24,31.5L204.7,385.6V322.51l54.44-30.74L309.82,321Z"/><path class="cls-1" d="M333.89,710.12a14,14,0,0,0-14-.06l-60.66,34.53a14,14,0,0,0-7.08,12.17v79.18l61.35,36.79a14,14,0,0,0,14.19.14l61.73-35.47a14,14,0,0,0,7-12.15V746.46ZM377.63,821.4l-56.24,31.5-48.87-29.64v-63.1L327,729.43l50.68,29.17Z"/><path class="cls-1" d="M660.26,710.12a14,14,0,0,0-14-.06l-60.65,34.53a14,14,0,0,0-7.08,12.17v79.18l61.35,36.79a14,14,0,0,0,14.19.14l61.73-35.47a14,14,0,0,0,7-12.15V746.46ZM704,821.4l-56.24,31.5-48.87-29.64v-63.1l54.43-30.73L704,758.6Z"/><path class="cls-1" d="M497.09,710.12a14,14,0,0,0-14-.06l-60.66,34.53a14,14,0,0,0-7.08,12.17v79.18l61.36,36.79a14,14,0,0,0,14.18.14l61.74-35.47a14,14,0,0,0,7-12.15V746.46ZM540.83,821.4,484.6,852.9l-48.88-29.64v-63.1l54.44-30.73,50.67,29.17Z"/><path class="cls-1" d="M356.42,127.16a14,14,0,0,0-14-.06l-60.66,34.53a14,14,0,0,0-7.08,12.18V253l61.36,36.8a14,14,0,0,0,14.18.13L412,254.44a14,14,0,0,0,7-12.14V163.5Zm43.74,111.28-56.24,31.5L295,240.3V177.2l54.44-30.73,50.68,29.17Z"/><path class="cls-1" d="M682.78,127.16a14,14,0,0,0-14-.06l-60.66,34.53a14,14,0,0,0-7.08,12.18V253l61.36,36.8a14,14,0,0,0,14.18.13l61.74-35.47a14,14,0,0,0,7-12.14V163.5Zm43.74,111.28-56.23,31.5L621.41,240.3V177.2l54.44-30.73,50.67,29.17Z"/><path class="cls-1" d="M519.62,127.16a14,14,0,0,0-14-.06L445,161.63a14,14,0,0,0-7.08,12.18V253l61.35,36.8a14,14,0,0,0,14.19.13l61.73-35.47a14,14,0,0,0,7-12.14V163.5Zm43.74,111.28-56.24,31.5L458.25,240.3V177.2l54.44-30.73,50.67,29.17Z"/><path class="cls-2" d="M558.88,445.39a27,27,0,0,0-2.85,2.67L402.92,600.37,553.1,481.19l-.26,47.59-55.32,31.53-17.3-9.38-17,12.2,29.4,16.31a9.52,9.52,0,0,0,9.48,0l64.83-37a9.5,9.5,0,0,0,4.78-8.18l.41-79.5v-2.26Z"/><path class="cls-2" d="M441.15,549.27A27,27,0,0,0,444,546.6l89.66-89.21-34,13.82-52.67,42.26.26-47.59,55.32-31.53,17.29,9.38,17-12.2-29.4-16.31a9.52,9.52,0,0,0-9.48-.05l-64.82,37a9.47,9.47,0,0,0-4.79,8.18l-.4,79.5v2.26Z"/><polygon class="cls-3" points="596.11 395.03 549.94 441.23 520.11 454.75 596.11 395.03"/></svg>