<svg id="Capa_1" data-name="Capa 1" xmlns="http://www.w3.org/2000/svg" viewBox="0 0 1000 1000"><defs><style>.cls-1{fill:#545453;}.cls-2{fill:#fff;}</style></defs><path class="cls-1" d="M614.87,398.8a51.36,51.36,0,0,0-5.52,5.16L313.1,698.65,603.68,468.06l-.51,92.08-107,61L462.67,603l-32.79,23.6,56.88,31.55a18.36,18.36,0,0,0,18.34.1l125.43-71.5a18.35,18.35,0,0,0,9.25-15.83l.8-153.82v-4.38Z"/><path class="cls-1" d="M387.07,599.78a51.5,51.5,0,0,0,5.52-5.17L566.06,422l-65.87,26.74L398.26,530.51l.51-92.07,107-61,33.47,18.15L572.06,372l-56.88-31.56a18.39,18.39,0,0,0-18.33-.1l-125.44,71.5a18.4,18.4,0,0,0-9.25,15.83l-.79,153.83v4.37Z"/><polygon class="cls-2" points="686.89 301.35 597.56 390.73 539.85 416.89 686.89 301.35"/><path class="cls-2" d="M552.93,442.79v31.06a1.6,1.6,0,0,0,1.59,1.6h11.1a1.6,1.6,0,0,0,1.59-1.6v-57.5a1.61,1.61,0,0,0-.9-1.44h0a1.62,1.62,0,0,0-1.69.2L538.68,435.9l-25.95-20.79a1.59,1.59,0,0,0-2.59,1.24v57.5a1.6,1.6,0,0,0,1.59,1.6h11.1a1.6,1.6,0,0,0,1.6-1.6V442.79l13.25,10.62a1.58,1.58,0,0,0,2,0Z"/><path class="cls-2" d="M590.15,414.76a1.58,1.58,0,0,0-1.13.46,1.61,1.61,0,0,0-.47,1.13v11.1a1.6,1.6,0,0,0,1.6,1.59H644a1.59,1.59,0,0,0,1.13-.47,1.61,1.61,0,0,0,.47-1.13v-11.1a1.6,1.6,0,0,0-1.6-1.59Z"/><path class="cls-2" d="M590.15,438a1.6,1.6,0,0,0-1.6,1.59V474a1.6,1.6,0,0,0,1.6,1.59H644a1.6,1.6,0,0,0,1.6-1.59v-11.1a1.6,1.6,0,0,0-1.6-1.6H602.84v-9h19.8a1.6,1.6,0,0,0,1.59-1.6V439.6a1.59,1.59,0,0,0-1.59-1.59Z"/><path class="cls-2" d="M372.69,414.76a18.93,18.93,0,0,0-12.84,5.11c-2.5,2.42-5.48,6.88-5.48,14.31V455.8c-.06,1.5-.06,9,5.28,14.53a17.62,17.62,0,0,0,13.16,5.22h20.35c7.5-.44,18.28-6,18.28-19.42V443.65a1.6,1.6,0,0,0-1.6-1.59H398.76a1.6,1.6,0,0,0-1.6,1.59v12.48c0,3.87-2.29,4.92-4.21,5.12H372.82c-2.05,0-2.65-.62-2.85-.82-1-1-1.32-3.37-1.31-4.34V434.18c0-4.55,2.22-5.13,4.16-5.13h37a1.6,1.6,0,0,0,1.6-1.6v-11.1a1.61,1.61,0,0,0-.47-1.13,1.58,1.58,0,0,0-1.13-.46H372.69Z"/><path class="cls-2" d="M460.5,442.17l19,32.49a1.6,1.6,0,0,0,1.37.79h12.87a1.59,1.59,0,0,0,1.37-2.4L462,416.45a1.67,1.67,0,0,0-2.75,0L425.39,473a1.6,1.6,0,0,0,1.36,2.42h12.94a1.61,1.61,0,0,0,1.37-.78Z"/><path class="cls-2" d="M289.26,546.69h28.5v21.66a1.6,1.6,0,0,0,1.6,1.59h11.1a1.59,1.59,0,0,0,1.59-1.59V510.74a1.59,1.59,0,0,0-1.59-1.59h-11.1a1.6,1.6,0,0,0-1.6,1.59V532.4h-28.5V510.74a1.59,1.59,0,0,0-1.59-1.59h-11.1a1.6,1.6,0,0,0-1.6,1.59v57.61a1.6,1.6,0,0,0,1.6,1.59h11.1a1.59,1.59,0,0,0,1.59-1.59Z"/><path class="cls-2" d="M433.4,510.12a1.65,1.65,0,0,0-.71.17,1.59,1.59,0,0,0-.88,1.43v56.63a1.59,1.59,0,0,0,1.59,1.59h11.1a1.59,1.59,0,0,0,1.59-1.59V537.43l40.23,30.8a1.59,1.59,0,0,0,2.56-1.27V510.74a1.59,1.59,0,0,0-1.59-1.59h-11.1a1.6,1.6,0,0,0-1.6,1.59v30.52l-40.22-30.81A1.62,1.62,0,0,0,433.4,510.12Z"/><path class="cls-2" d="M668.65,537.87a1.6,1.6,0,0,0-1.6,1.59v11.1a1.6,1.6,0,0,0,1.6,1.6h22.42a5,5,0,0,1,3.33,1.38l18.39,16a1.64,1.64,0,0,0,2.25-.16l7.29-8.37a1.6,1.6,0,0,0-.15-2.25l-9.62-8.38,1.83-1.14a21.18,21.18,0,0,0,9.74-17.91c0-11.47-8.84-20.8-19.71-20.8H668.65a1.6,1.6,0,0,0-1.6,1.6v11.1a1.6,1.6,0,0,0,1.6,1.59h35.77c3,0,5.42,2.92,5.42,6.51s-2.43,6.51-5.42,6.51Z"/><path class="cls-2" d="M528.62,509.15a19.24,19.24,0,0,0-13,5.11c-2.5,2.42-5.48,6.88-5.48,14.31v21.61c-.05,1.51-.05,9,5.29,14.55,2.29,2.38,6.43,5.21,13.15,5.21H549c7.51-.44,18.28-6,18.28-19.43V534a1.59,1.59,0,0,0-1.59-1.59h-11.1A1.59,1.59,0,0,0,553,534v16.52c0,3.88-2.3,4.93-4.22,5.13H528.63a4,4,0,0,1-2.84-.81c-1-1.05-1.33-3.38-1.31-4.35V528.57c0-4.55,2.22-5.14,4.15-5.14h37.11a1.59,1.59,0,0,0,1.59-1.59v-11.1a1.61,1.61,0,0,0-.47-1.13,1.57,1.57,0,0,0-1.12-.46H528.62Z"/><path class="cls-2" d="M382.17,536.66l19,32.49a1.58,1.58,0,0,0,1.37.79h12.86a1.6,1.6,0,0,0,1.38-.8,1.58,1.58,0,0,0,0-1.6l-33.14-56.6a1.67,1.67,0,0,0-2.75,0l-33.87,56.6a1.59,1.59,0,0,0,1.37,2.41h12.93a1.61,1.61,0,0,0,1.37-.77Z"/><path class="cls-2" d="M252,555.66H215a5,5,0,0,1-2.95-1.07c-.94-.91-1.14-2.71-1.14-4.06V528.31a6.85,6.85,0,0,1,1.3-4c.2-.2.81-.83,2.86-.83h37a1.6,1.6,0,0,0,1.59-1.6V510.79a1.6,1.6,0,0,0-1.59-1.6H215c-6.72,0-10.85,2.83-13.14,5.21-5.58,5.79-5.3,13.8-5.29,14.13v22c0,7.42,3,11.88,5.48,14.31a19.19,19.19,0,0,0,12.75,5.1h27.51S252.35,555.66,252,555.66Z"/><path class="cls-2" d="M803.26,509.92a1.61,1.61,0,0,0-1.43-.89h-52.5a1.6,1.6,0,0,0-1.6,1.6v11.09a1.6,1.6,0,0,0,1.6,1.6h26.75l-33.72,43.94a1.56,1.56,0,0,0-.17,1.67,1.59,1.59,0,0,0,1.43.89h37.89l10.81-14.28h-23l33.72-43.94A1.58,1.58,0,0,0,803.26,509.92Z"/><path class="cls-2" d="M590.23,509.14a1.59,1.59,0,0,0-1.59,1.6v11.1a1.59,1.59,0,0,0,1.59,1.59h53.89a1.57,1.57,0,0,0,1.12-.46,1.61,1.61,0,0,0,.47-1.13v-11.1a1.59,1.59,0,0,0-1.59-1.59Z"/><path class="cls-2" d="M590.23,532.4a1.59,1.59,0,0,0-1.59,1.59v34.36a1.59,1.59,0,0,0,1.59,1.59h53.89a1.59,1.59,0,0,0,1.59-1.59v-11.1a1.6,1.6,0,0,0-1.59-1.6h-41.2v-9h19.8a1.6,1.6,0,0,0,1.6-1.59V534a1.6,1.6,0,0,0-1.6-1.59Z"/></svg>