<svg id="Capa_1" data-name="Capa 1" xmlns="http://www.w3.org/2000/svg" viewBox="0 0 1000 1000"><defs><style>.cls-1{fill:#4c3655;}.cls-2{fill:#fef19c;}.cls-3{fill:#fff;}.cls-4{fill:#eb6743;}</style></defs><path class="cls-1" d="M567.56,440.48a29.54,29.54,0,0,0-3.25,3L390.09,616.83,561,481.22l-.3,54.15-62.95,35.88L478,560.58l-19.28,13.87L492.22,593a10.8,10.8,0,0,0,10.78.06L576.77,551a10.8,10.8,0,0,0,5.44-9.31l.47-90.47v-2.57Z"/><path class="cls-1" d="M433.59,558.68a30.35,30.35,0,0,0,3.24-3l102-101.51-38.74,15.73L440.17,518l.3-54.15,62.95-35.89,19.68,10.67,19.28-13.87-33.45-18.56a10.8,10.8,0,0,0-10.78-.06l-73.77,42.05a10.8,10.8,0,0,0-5.44,9.31l-.47,90.47v2.57Z"/><polygon class="cls-2" points="609.91 383.17 557.38 435.74 523.44 451.12 609.91 383.17"/><path class="cls-3" d="M417.26,471.69a19,19,0,0,0-12.91,5.14c-2.51,2.44-5.51,6.92-5.51,14.4V513c0,1.52-.06,9,5.32,14.63,2.31,2.4,6.47,5.25,13.24,5.25h20.48c7.54-.44,18.39-6,18.39-19.54V500.77a1.61,1.61,0,0,0-1.6-1.61H443.5a1.6,1.6,0,0,0-1.6,1.61v12.55c0,3.89-2.31,4.95-4.24,5.15H417.4c-2.06,0-2.67-.62-2.87-.83-1-1-1.33-3.39-1.31-4.36V491.23c0-4.58,2.23-5.17,4.18-5.17h37.27a1.6,1.6,0,0,0,1.6-1.6V473.29a1.59,1.59,0,0,0-.47-1.13,1.55,1.55,0,0,0-1.13-.47H417.26Z"/><path class="cls-3" d="M527.81,518.48H490.48a5,5,0,0,1-3-1.08c-1-.92-1.16-2.73-1.16-4.09V490.93a6.8,6.8,0,0,1,1.31-4c.2-.21.81-.84,2.87-.84h37.28a1.61,1.61,0,0,0,1.61-1.61V473.29a1.61,1.61,0,0,0-1.61-1.61H490.53c-6.77,0-10.93,2.85-13.23,5.25-5.62,5.83-5.34,13.89-5.33,14.23v22.15c0,7.48,3,12,5.52,14.41a19.35,19.35,0,0,0,12.84,5.14H518S528.14,518.48,527.81,518.48Z"/><path class="cls-4" d="M601,472.58a1.61,1.61,0,0,0-1.44-.9H546.72a1.61,1.61,0,0,0-1.61,1.61v11.17a1.61,1.61,0,0,0,1.61,1.6h26.92L539.7,530.28a1.61,1.61,0,0,0,1.28,2.58h38.13L590,518.48H566.89l33.93-44.21A1.6,1.6,0,0,0,601,472.58Z"/></svg>