<svg id="Capa_1" data-name="Capa 1" xmlns="http://www.w3.org/2000/svg" viewBox="0 0 1000 1000"><defs><style>.cls-1{fill:#755381;}.cls-2{fill:#fef19c;}</style></defs><path class="cls-1" d="M567.56,440.48a29.54,29.54,0,0,0-3.25,3L390.09,616.83,561,481.22l-.3,54.15-62.95,35.88L478,560.58l-19.28,13.87L492.22,593a10.8,10.8,0,0,0,10.78.06L576.77,551a10.8,10.8,0,0,0,5.44-9.31l.47-90.47v-2.57Z"/><path class="cls-1" d="M433.59,558.68a30.35,30.35,0,0,0,3.24-3l102-101.51-38.74,15.73L440.17,518l.3-54.15,62.95-35.89,19.68,10.67,19.28-13.87-33.45-18.56a10.8,10.8,0,0,0-10.78-.06l-73.77,42.05a10.8,10.8,0,0,0-5.44,9.31l-.47,90.47v2.57Z"/><polygon class="cls-2" points="609.91 383.17 557.38 435.74 523.44 451.12 609.91 383.17"/></svg>