<svg id="Capa_1" data-name="Capa 1" xmlns="http://www.w3.org/2000/svg" viewBox="0 0 1000 1000"><defs><style>.cls-1{fill:#755381;}</style></defs><path class="cls-1" d="M539.08,465.27a18.8,18.8,0,0,0-1.89,1.77L435.53,568.17,535.24,489l-.17,31.6-36.73,20.93-11.48-6.22-11.26,8.09,19.52,10.83a6.3,6.3,0,0,0,6.3,0l43-24.53a6.3,6.3,0,0,0,3.17-5.43l.27-52.79v-1.5Z"/><path class="cls-1" d="M460.92,534.73a18.8,18.8,0,0,0,1.89-1.77L564.47,431.83,464.76,511l.17-31.6,36.73-20.93,11.48,6.22,11.26-8.09-19.52-10.83a6.3,6.3,0,0,0-6.3,0l-43,24.53a6.3,6.3,0,0,0-3.17,5.43l-.27,52.79V530Z"/></svg>